<svg xmlns="http://www.w3.org/2000/svg" width="600" height="350" viewBox="0 0 600 350"><rect width="100%" height="100%" fill="#DDDDDD"/><path fill="#999999" d="m155.52 146.08-17.16 21-2 2.48q1.68-.84 3.62-1.3 1.94-.46 4.18-.46 3.28 0 6.38 1.08t5.46 3.26q2.36 2.18 3.8 5.42 1.44 3.24 1.44 7.56 0 4.04-1.48 7.58t-4.16 6.18q-2.68 2.64-6.46 4.16t-8.34 1.52q-4.64 0-8.32-1.48-3.68-1.48-6.28-4.14-2.6-2.66-3.98-6.4t-1.38-8.3q0-4.08 1.66-8.38 1.66-4.3 5.14-8.94l13.8-18.52q.72-.96 2.1-1.64 1.38-.68 3.18-.68h8.8Zm-14.92 50.4q2.36 0 4.34-.8t3.4-2.24q1.42-1.44 2.22-3.38.8-1.94.8-4.22 0-2.48-.76-4.46t-2.16-3.36q-1.4-1.38-3.36-2.1-1.96-.72-4.32-.72-2.36 0-4.28.8-1.92.8-3.28 2.22-1.36 1.42-2.12 3.36t-.76 4.18q0 2.4.66 4.38t1.96 3.38q1.3 1.4 3.22 2.18 1.92.78 4.44.78ZM208.28 175q0 7.56-1.62 13.14-1.62 5.58-4.48 9.22-2.86 3.64-6.76 5.42-3.9 1.78-8.42 1.78t-8.38-1.78q-3.86-1.78-6.7-5.42-2.84-3.64-4.44-9.22-1.6-5.58-1.6-13.14 0-7.6 1.6-13.16 1.6-5.56 4.44-9.2 2.84-3.64 6.7-5.42 3.86-1.78 8.38-1.78 4.52 0 8.42 1.78 3.9 1.78 6.76 5.42 2.86 3.64 4.48 9.2 1.62 5.56 1.62 13.16Zm-10.2 0q0-6.28-.92-10.4t-2.46-6.56q-1.54-2.44-3.54-3.42t-4.16-.98q-2.12 0-4.1.98-1.98.98-3.5 3.42t-2.42 6.56q-.9 4.12-.9 10.4t.9 10.4q.9 4.12 2.42 6.56 1.52 2.44 3.5 3.42t4.1.98q2.16 0 4.16-.98t3.54-3.42q1.54-2.44 2.46-6.56.92-4.12.92-10.4Zm56.6 0q0 7.56-1.62 13.14-1.62 5.58-4.48 9.22-2.86 3.64-6.76 5.42-3.9 1.78-8.42 1.78t-8.38-1.78q-3.86-1.78-6.7-5.42-2.84-3.64-4.44-9.22-1.6-5.58-1.6-13.14 0-7.6 1.6-13.16 1.6-5.56 4.44-9.2 2.84-3.64 6.7-5.42 3.86-1.78 8.38-1.78 4.52 0 8.42 1.78 3.9 1.78 6.76 5.42 2.86 3.64 4.48 9.2 1.62 5.56 1.62 13.16Zm-10.2 0q0-6.28-.92-10.4t-2.46-6.56q-1.54-2.44-3.54-3.42t-4.16-.98q-2.12 0-4.1.98-1.98.98-3.5 3.42t-2.42 6.56q-.9 4.12-.9 10.4t.9 10.4q.9 4.12 2.42 6.56 1.52 2.44 3.5 3.42t4.1.98q2.16 0 4.16-.98t3.54-3.42q1.54-2.44 2.46-6.56.92-4.12.92-10.4Zm73.72 15.68-5.24 5.16-13.56-13.56-13.68 13.64-5.24-5.16 13.68-13.72L281.12 164l5.2-5.2 13.04 13.04 12.96-12.96 5.28 5.2-13 13 13.6 13.6Zm33.28-27.56-5.2-.92q.6-4.16 2.32-7.3 1.72-3.14 4.3-5.24t5.92-3.16q3.34-1.06 7.18-1.06 4 0 7.22 1.14 3.22 1.14 5.5 3.16 2.28 2.02 3.5 4.74 1.22 2.72 1.22 5.88 0 2.76-.62 4.86-.62 2.1-1.78 3.66-1.16 1.56-2.88 2.64t-3.88 1.8q5.2 1.64 7.76 5 2.56 3.36 2.56 8.44 0 4.32-1.6 7.64-1.6 3.32-4.32 5.58-2.72 2.26-6.3 3.42-3.58 1.16-7.58 1.16-4.36 0-7.6-1-3.24-1-5.64-2.96-2.4-1.96-4.08-4.8-1.68-2.84-2.88-6.56l4.36-1.8q1.72-.72 3.22-.38 1.5.34 2.18 1.62.72 1.4 1.58 2.76.86 1.36 2.06 2.42 1.2 1.06 2.82 1.72 1.62.66 3.86.66 2.52 0 4.4-.82 1.88-.82 3.14-2.14 1.26-1.32 1.88-2.94.62-1.62.62-3.26 0-2.08-.44-3.78-.44-1.7-1.84-2.9-1.4-1.2-4.02-1.88-2.62-.68-7.02-.68v-7.04q3.64-.04 6.04-.68t3.82-1.78q1.42-1.14 1.98-2.74.56-1.6.56-3.52 0-4.08-2.28-6.2t-6.08-2.12q-1.76 0-3.24.5-1.48.5-2.66 1.4-1.18.9-1.98 2.1-.8 1.2-1.2 2.64-.68 1.84-1.78 2.44-1.1.6-3.1.28Zm55.16-8.08-2.04 12.04q1.92-.4 3.68-.58 1.76-.18 3.4-.18 4.56 0 8.04 1.36 3.48 1.36 5.84 3.76 2.36 2.4 3.56 5.62 1.2 3.22 1.2 6.94 0 4.6-1.62 8.4-1.62 3.8-4.5 6.5t-6.82 4.18q-3.94 1.48-8.58 1.48-2.72 0-5.16-.56t-4.58-1.5q-2.14-.94-3.96-2.16-1.82-1.22-3.26-2.58l3.04-4.2q.96-1.36 2.52-1.36 1 0 2.04.64t2.38 1.4q1.34.76 3.16 1.4 1.82.64 4.38.64 2.72 0 4.8-.88 2.08-.88 3.46-2.46t2.08-3.76q.7-2.18.7-4.74 0-4.72-2.74-7.38t-8.1-2.66q-4.12 0-8.44 1.52l-6.16-1.76 4.8-28.08h28.56v4.2q0 2.12-1.32 3.44-1.32 1.32-4.48 1.32h-15.88ZM479.16 175q0 7.56-1.62 13.14-1.62 5.58-4.48 9.22-2.86 3.64-6.76 5.42-3.9 1.78-8.42 1.78t-8.38-1.78q-3.86-1.78-6.7-5.42-2.84-3.64-4.44-9.22-1.6-5.58-1.6-13.14 0-7.6 1.6-13.16 1.6-5.56 4.44-9.2 2.84-3.64 6.7-5.42 3.86-1.78 8.38-1.78 4.52 0 8.42 1.78 3.9 1.78 6.76 5.42 2.86 3.64 4.48 9.2 1.62 5.56 1.62 13.16Zm-10.2 0q0-6.28-.92-10.4t-2.46-6.56q-1.54-2.44-3.54-3.42t-4.16-.98q-2.12 0-4.1.98-1.98.98-3.5 3.42t-2.42 6.56q-.9 4.12-.9 10.4t.9 10.4q.9 4.12 2.42 6.56 1.52 2.44 3.5 3.42t4.1.98q2.16 0 4.16-.98t3.54-3.42q1.54-2.44 2.46-6.56.92-4.12.92-10.4Z"/></svg>